# xmcd
#
# Track frame offsets: 
#        182
#        25065
#        44985
#        59795
#        78027
#        94065
#        116307
#        140830
#        162747
#        197980
#        216457
#        234310
#        250735
#        275917
#        289572
#        309205
#
# Disc length: 4393 seconds
#
# Revision: 5
# Processed by: cddbd v1.5.2PL0 Copyright (c) Steve Scherf et al.
# Submitted via: ExactAudioCopy v0.99pb5
#
DISCID=f4112710
DTITLE=Eric Clapton - Crossroads Disc 3
DYEAR=1988
DGENRE=Rock
TTITLE0=Got to Get Better In a Little While (Derek and the Dominos)
TTITLE1=Evil (Derek and the Dominos)
TTITLE2=One More Chance (Derek and the Dominos)
TTITLE3=Mean Old Frisco (Derek and the Dominos)
TTITLE4=Snake Lake Blues (Derek and the Dominos)
TTITLE5=Let It Grow
TTITLE6=Ain't That Lovin' You
TTITLE7=Motherless Children
TTITLE8=I Shot The Sheriff
TTITLE9=Better Make It Through Today
TTITLE10=The Sky Is Crying
TTITLE11=I Found A Love
TTITLE12=(When Things Go Wrong) It Hurts Me Too
TTITLE13=Whatcha Gonna Do
TTITLE14=Knockin' On Heaven's Door
TTITLE15=Someone Like You
EXTD=
EXTT0=
EXTT1=
EXTT2=
EXTT3=
EXTT4=
EXTT5=
EXTT6=
EXTT7=
EXTT8=
EXTT9=
EXTT10=
EXTT11=
EXTT12=
EXTT13=
EXTT14=
EXTT15=
PLAYORDER=
